<?xml version="1.0" encoding="utf-8"?>
<!-- Generator: Adobe Illustrator 24.1.2, SVG Export Plug-In . SVG Version: 6.00 Build 0)  -->
<svg version="1.1" id="Vrstva_1" xmlns="http://www.w3.org/2000/svg" xmlns:xlink="http://www.w3.org/1999/xlink" x="0px" y="0px"
	 viewBox="0 0 1000 1000" style="enable-background:new 0 0 1000 1000;" xml:space="preserve">
<style type="text/css">
	.st0{fill:none;stroke:#EE9B2E;stroke-width:0.2941;stroke-miterlimit:10;}
	.st1{fill:none;stroke:#EE9B2E;stroke-width:0.2971;stroke-miterlimit:10;}
	.st2{fill:none;stroke:#EE9B2E;stroke-width:0.3001;stroke-miterlimit:10;}
	.st3{fill:none;stroke:#EE9B2E;stroke-width:0.3032;stroke-miterlimit:10;}
	.st4{fill:none;stroke:#EE9B2E;stroke-width:0.3062;stroke-miterlimit:10;}
	.st5{fill:none;stroke:#EE9B2E;stroke-width:0.3093;stroke-miterlimit:10;}
	.st6{fill:none;stroke:#EE9B2E;stroke-width:0.3125;stroke-miterlimit:10;}
	.st7{fill:none;stroke:#EE9B2E;stroke-width:0.3156;stroke-miterlimit:10;}
	.st8{fill:none;stroke:#EE9B2E;stroke-width:0.3188;stroke-miterlimit:10;}
	.st9{fill:none;stroke:#EE9B2E;stroke-width:0.3221;stroke-miterlimit:10;}
	.st10{fill:none;stroke:#EE9B2E;stroke-width:0.3253;stroke-miterlimit:10;}
	.st11{fill:none;stroke:#EE9B2E;stroke-width:0.3286;stroke-miterlimit:10;}
	.st12{fill:none;stroke:#EE9B2E;stroke-width:0.332;stroke-miterlimit:10;}
	.st13{fill:none;stroke:#EE9B2E;stroke-width:0.3353;stroke-miterlimit:10;}
	.st14{fill:none;stroke:#EE9B2E;stroke-width:0.3387;stroke-miterlimit:10;}
	.st15{fill:none;stroke:#EE9B2E;stroke-width:0.3422;stroke-miterlimit:10;}
	.st16{fill:none;stroke:#EE9B2E;stroke-width:0.3456;stroke-miterlimit:10;}
	.st17{fill:none;stroke:#EE9B2E;stroke-width:0.3491;stroke-miterlimit:10;}
	.st18{fill:none;stroke:#EE9B2E;stroke-width:0.3527;stroke-miterlimit:10;}
	.st19{fill:none;stroke:#EE9B2E;stroke-width:0.3562;stroke-miterlimit:10;}
	.st20{fill:none;stroke:#EE9B2E;stroke-width:0.3599;stroke-miterlimit:10;}
	.st21{fill:none;stroke:#EE9B2E;stroke-width:0.3635;stroke-miterlimit:10;}
	.st22{fill:none;stroke:#EE9B2E;stroke-width:0.3672;stroke-miterlimit:10;}
	.st23{fill:none;stroke:#EE9B2E;stroke-width:0.3709;stroke-miterlimit:10;}
	.st24{fill:none;stroke:#EE9B2E;stroke-width:0.3747;stroke-miterlimit:10;}
	.st25{fill:none;stroke:#EE9B2E;stroke-width:0.3785;stroke-miterlimit:10;}
	.st26{fill:none;stroke:#EE9B2E;stroke-width:0.3823;stroke-miterlimit:10;}
	.st27{fill:none;stroke:#EE9B2E;stroke-width:0.3862;stroke-miterlimit:10;}
	.st28{fill:none;stroke:#EE9B2E;stroke-width:0.3901;stroke-miterlimit:10;}
	.st29{fill:none;stroke:#EE9B2E;stroke-width:0.394;stroke-miterlimit:10;}
	.st30{fill:none;stroke:#EE9B2E;stroke-width:0.398;stroke-miterlimit:10;}
	.st31{fill:none;stroke:#EE9B2E;stroke-width:0.4021;stroke-miterlimit:10;}
	.st32{fill:none;stroke:#EE9B2E;stroke-width:0.4061;stroke-miterlimit:10;}
	.st33{fill:none;stroke:#EE9B2E;stroke-width:0.4102;stroke-miterlimit:10;}
	.st34{fill:none;stroke:#EE9B2E;stroke-width:0.4144;stroke-miterlimit:10;}
	.st35{fill:none;stroke:#EE9B2E;stroke-width:0.4186;stroke-miterlimit:10;}
	.st36{fill:none;stroke:#EE9B2E;stroke-width:0.4228;stroke-miterlimit:10;}
	.st37{fill:none;stroke:#EE9B2E;stroke-width:0.4271;stroke-miterlimit:10;}
	.st38{fill:none;stroke:#EE9B2E;stroke-width:0.4315;stroke-miterlimit:10;}
	.st39{fill:none;stroke:#EE9B2E;stroke-width:0.4358;stroke-miterlimit:10;}
	.st40{fill:none;stroke:#EE9B2E;stroke-width:0.4402;stroke-miterlimit:10;}
</style>
<g>
	<g>
		<polygon class="st0" points="821.56,732.62 931.37,900.96 791.91,935.57 682.1,767.23 		"/>
	</g>
	<g>
		<polygon class="st1" points="827.12,733.5 930.27,907.22 786.34,934.69 683.2,760.96 		"/>
	</g>
	<g>
		<polygon class="st2" points="832.74,734.67 928.82,913.43 780.72,933.52 684.65,754.76 		"/>
	</g>
	<g>
		<polygon class="st3" points="838.41,736.13 927.02,919.55 775.06,932.06 686.45,748.64 		"/>
	</g>
	<g>
		<polygon class="st4" points="844.11,737.87 924.86,925.57 769.36,930.32 688.61,742.62 		"/>
	</g>
	<g>
		<polygon class="st5" points="849.83,739.9 922.35,931.47 763.64,928.29 691.12,736.72 		"/>
	</g>
	<g>
		<polygon class="st6" points="855.55,742.22 919.49,937.24 757.92,925.97 693.98,730.95 		"/>
	</g>
	<g>
		<polygon class="st7" points="861.25,744.83 916.27,942.85 752.22,923.36 697.2,725.34 		"/>
	</g>
	<g>
		<polygon class="st8" points="866.93,747.72 912.7,948.29 746.53,920.47 700.77,719.9 		"/>
	</g>
	<g>
		<polygon class="st9" points="872.57,750.9 908.78,953.55 740.9,917.28 704.69,714.64 		"/>
	</g>
	<g>
		<polygon class="st10" points="878.15,754.37 904.51,958.59 735.31,913.82 708.96,709.6 		"/>
	</g>
	<g>
		<polygon class="st11" points="883.66,758.11 899.9,963.41 729.81,910.08 713.57,704.77 		"/>
	</g>
	<g>
		<polygon class="st12" points="889.08,762.13 894.94,968 724.39,906.06 718.52,700.19 		"/>
	</g>
	<g>
		<polygon class="st13" points="894.39,766.42 889.66,972.32 719.08,901.77 723.81,695.87 		"/>
	</g>
	<g>
		<polygon class="st14" points="899.58,770.98 884.05,976.37 713.89,897.21 729.42,691.82 		"/>
	</g>
	<g>
		<polygon class="st15" points="904.63,775.79 878.12,980.12 708.84,892.39 735.35,688.07 		"/>
	</g>
	<g>
		<polygon class="st16" points="909.53,780.86 871.88,983.57 703.94,887.33 741.58,684.62 		"/>
	</g>
	<g>
		<polygon class="st17" points="914.25,786.17 865.35,986.7 699.22,882.02 748.12,681.49 		"/>
	</g>
	<g>
		<polygon class="st18" points="918.79,791.71 858.53,989.49 694.68,876.48 754.94,678.7 		"/>
	</g>
	<g>
		<polygon class="st19" points="923.13,797.48 851.43,991.92 690.34,870.71 762.04,676.26 		"/>
	</g>
	<g>
		<polygon class="st20" points="927.25,803.46 844.08,994 686.22,864.73 769.39,674.19 		"/>
	</g>
	<g>
		<polygon class="st21" points="931.14,809.64 836.47,995.69 682.33,858.55 777,672.5 		"/>
	</g>
	<g>
		<polygon class="st22" points="934.78,816.02 828.63,997 678.69,852.17 784.84,671.19 		"/>
	</g>
	<g>
		<polygon class="st23" points="938.16,822.57 820.57,997.9 675.31,845.62 792.9,670.29 		"/>
	</g>
	<g>
		<polygon class="st24" points="941.26,829.28 812.32,998.4 672.21,838.91 801.15,669.79 		"/>
	</g>
	<g>
		<polygon class="st25" points="944.07,836.15 803.88,998.47 669.4,832.04 809.59,669.72 		"/>
	</g>
	<g>
		<polygon class="st26" points="946.58,843.14 795.27,998.11 666.89,825.05 818.2,670.08 		"/>
	</g>
	<g>
		<polygon class="st27" points="948.77,850.26 786.52,997.31 664.7,817.93 826.94,670.88 		"/>
	</g>
	<g>
		<polygon class="st28" points="950.64,857.48 777.65,996.07 662.83,810.71 835.82,672.12 		"/>
	</g>
	<g>
		<polygon class="st29" points="952.16,864.79 768.67,994.37 661.31,803.4 844.8,673.81 		"/>
	</g>
	<g>
		<polygon class="st30" points="953.33,872.16 759.61,992.23 660.14,796.03 853.86,675.96 		"/>
	</g>
	<g>
		<polygon class="st31" points="954.14,879.58 750.49,989.62 659.32,788.61 862.98,678.57 		"/>
	</g>
	<g>
		<polygon class="st32" points="954.59,887.04 741.33,986.55 658.88,781.15 872.14,681.64 		"/>
	</g>
	<g>
		<polygon class="st33" points="954.65,894.5 732.15,983.02 658.82,773.68 881.32,685.17 		"/>
	</g>
	<g>
		<polygon class="st34" points="954.32,901.97 722.99,979.02 659.15,766.22 890.48,689.17 		"/>
	</g>
	<g>
		<polygon class="st35" points="953.6,909.4 713.85,974.56 659.87,758.79 899.62,693.63 		"/>
	</g>
	<g>
		<polygon class="st36" points="952.48,916.79 704.78,969.65 660.99,751.4 908.69,698.54 		"/>
	</g>
	<g>
		<polygon class="st37" points="950.96,924.11 695.79,964.27 662.51,744.08 917.68,703.92 		"/>
	</g>
	<g>
		<polygon class="st38" points="949.02,931.35 686.9,958.45 664.45,736.84 926.57,709.74 		"/>
	</g>
	<g>
		
			<rect x="672.3" y="722.72" transform="matrix(0.9987 -0.051 0.051 0.9987 -41.4692 42.2077)" class="st39" width="268.87" height="222.75"/>
	</g>
	<g>
		<rect x="669.56" y="722.72" class="st40" width="274.34" height="222.75"/>
	</g>
</g>
</svg>
